G04 #@! TF.FileFunction,Legend,Top*
%FSLAX46Y46*%
G04 Gerber Fmt 4.6, Leading zero omitted, Abs format (unit mm)*
G04 Created by KiCad (PCBNEW 4.0.7) date 11/04/18 21:23:51*
%MOMM*%
%LPD*%
G01*
G04 APERTURE LIST*
%ADD10C,0.100000*%
%ADD11C,0.125000*%
%ADD12C,0.120000*%
%ADD13C,0.150000*%
G04 APERTURE END LIST*
D10*
D11*
X147193047Y-113034000D02*
X147145428Y-113010190D01*
X147074000Y-113010190D01*
X147002571Y-113034000D01*
X146954952Y-113081619D01*
X146931143Y-113129238D01*
X146907333Y-113224476D01*
X146907333Y-113295905D01*
X146931143Y-113391143D01*
X146954952Y-113438762D01*
X147002571Y-113486381D01*
X147074000Y-113510190D01*
X147121619Y-113510190D01*
X147193047Y-113486381D01*
X147216857Y-113462571D01*
X147216857Y-113295905D01*
X147121619Y-113295905D01*
X147431143Y-113510190D02*
X147431143Y-113010190D01*
X147716857Y-113510190D01*
X147716857Y-113010190D01*
X147954953Y-113510190D02*
X147954953Y-113010190D01*
X148074000Y-113010190D01*
X148145429Y-113034000D01*
X148193048Y-113081619D01*
X148216857Y-113129238D01*
X148240667Y-113224476D01*
X148240667Y-113295905D01*
X148216857Y-113391143D01*
X148193048Y-113438762D01*
X148145429Y-113486381D01*
X148074000Y-113510190D01*
X147954953Y-113510190D01*
X149673524Y-113510190D02*
X149673524Y-113010190D01*
X149792571Y-113010190D01*
X149864000Y-113034000D01*
X149911619Y-113081619D01*
X149935428Y-113129238D01*
X149959238Y-113224476D01*
X149959238Y-113295905D01*
X149935428Y-113391143D01*
X149911619Y-113438762D01*
X149864000Y-113486381D01*
X149792571Y-113510190D01*
X149673524Y-113510190D01*
X150173524Y-113319714D02*
X150554476Y-113319714D01*
X150364000Y-113510190D02*
X150364000Y-113129238D01*
X152467524Y-113510190D02*
X152467524Y-113010190D01*
X152586571Y-113010190D01*
X152658000Y-113034000D01*
X152705619Y-113081619D01*
X152729428Y-113129238D01*
X152753238Y-113224476D01*
X152753238Y-113295905D01*
X152729428Y-113391143D01*
X152705619Y-113438762D01*
X152658000Y-113486381D01*
X152586571Y-113510190D01*
X152467524Y-113510190D01*
X152967524Y-113319714D02*
X153348476Y-113319714D01*
D12*
X146244000Y-113732000D02*
X146244000Y-116392000D01*
X153924000Y-113732000D02*
X146244000Y-113732000D01*
X153924000Y-116392000D02*
X146244000Y-116392000D01*
X153924000Y-113732000D02*
X153924000Y-116392000D01*
X155194000Y-113732000D02*
X156524000Y-113732000D01*
X156524000Y-113732000D02*
X156524000Y-115062000D01*
D13*
X151384000Y-109982000D02*
X150368000Y-109982000D01*
X150368000Y-109982000D02*
X150368000Y-111506000D01*
X150368000Y-111506000D02*
X150368000Y-110744000D01*
X150368000Y-110744000D02*
X151384000Y-110744000D01*
X151384000Y-110744000D02*
X151384000Y-109982000D01*
X148590000Y-109982000D02*
X148590000Y-111506000D01*
X148590000Y-111506000D02*
X149860000Y-111506000D01*
X149860000Y-111506000D02*
X149860000Y-109982000D01*
X149780667Y-98656381D02*
X149780667Y-99370667D01*
X149733047Y-99513524D01*
X149637809Y-99608762D01*
X149494952Y-99656381D01*
X149399714Y-99656381D01*
X150780667Y-99656381D02*
X150209238Y-99656381D01*
X150494952Y-99656381D02*
X150494952Y-98656381D01*
X150399714Y-98799238D01*
X150304476Y-98894476D01*
X150209238Y-98942095D01*
M02*
