G04 #@! TF.FileFunction,Legend,Bot*
%FSLAX46Y46*%
G04 Gerber Fmt 4.6, Leading zero omitted, Abs format (unit mm)*
G04 Created by KiCad (PCBNEW 4.0.7) date 11/04/18 21:23:51*
%MOMM*%
%LPD*%
G01*
G04 APERTURE LIST*
%ADD10C,0.100000*%
%ADD11C,0.010000*%
G04 APERTURE END LIST*
D10*
D11*
G36*
X152010533Y-108593467D02*
X148217467Y-108593467D01*
X148217467Y-112183333D01*
X148420667Y-112183333D01*
X148420667Y-108796667D01*
X151807333Y-108796667D01*
X151807333Y-108881334D01*
X151793345Y-108945782D01*
X151738269Y-108965643D01*
X151722666Y-108966000D01*
X151658218Y-108979988D01*
X151638357Y-109035064D01*
X151638000Y-109050667D01*
X151651988Y-109115116D01*
X151707064Y-109134976D01*
X151722666Y-109135333D01*
X151787115Y-109149321D01*
X151806976Y-109204397D01*
X151807333Y-109220000D01*
X151793345Y-109284449D01*
X151738269Y-109304309D01*
X151722666Y-109304667D01*
X151658218Y-109290679D01*
X151638357Y-109235603D01*
X151638000Y-109220000D01*
X151624012Y-109155551D01*
X151568936Y-109135691D01*
X151553333Y-109135333D01*
X151488884Y-109149321D01*
X151469024Y-109204397D01*
X151468667Y-109220000D01*
X151454679Y-109284449D01*
X151399603Y-109304309D01*
X151384000Y-109304667D01*
X151319551Y-109318655D01*
X151299691Y-109373731D01*
X151299333Y-109389333D01*
X151285345Y-109453782D01*
X151230269Y-109473643D01*
X151214667Y-109474000D01*
X151171601Y-109477166D01*
X151146358Y-109496174D01*
X151134180Y-109545292D01*
X151130311Y-109638787D01*
X151130000Y-109728000D01*
X151299333Y-109728000D01*
X151313321Y-109663551D01*
X151368397Y-109643691D01*
X151384000Y-109643333D01*
X151448449Y-109629346D01*
X151468309Y-109574270D01*
X151468667Y-109558667D01*
X151474157Y-109508418D01*
X151502175Y-109483350D01*
X151570042Y-109474802D01*
X151638000Y-109474000D01*
X151738497Y-109476745D01*
X151788633Y-109490754D01*
X151805729Y-109524688D01*
X151807333Y-109558667D01*
X151793345Y-109623116D01*
X151738269Y-109642976D01*
X151722666Y-109643333D01*
X151658218Y-109657321D01*
X151638357Y-109712397D01*
X151638000Y-109728000D01*
X151651988Y-109792449D01*
X151707064Y-109812309D01*
X151722666Y-109812667D01*
X151787115Y-109826655D01*
X151806976Y-109881731D01*
X151807333Y-109897333D01*
X151801843Y-109947582D01*
X151773825Y-109972650D01*
X151705957Y-109981198D01*
X151638000Y-109982000D01*
X151537502Y-109979255D01*
X151487366Y-109965246D01*
X151470271Y-109931312D01*
X151468667Y-109897333D01*
X151454679Y-109832885D01*
X151399603Y-109813024D01*
X151384000Y-109812667D01*
X151319551Y-109798679D01*
X151299691Y-109743603D01*
X151299333Y-109728000D01*
X151130000Y-109728000D01*
X151128945Y-109857195D01*
X151122609Y-109932926D01*
X151106236Y-109969461D01*
X151075071Y-109981066D01*
X151045333Y-109982000D01*
X150980884Y-109995988D01*
X150961024Y-110051064D01*
X150960667Y-110066667D01*
X150946679Y-110131116D01*
X150891603Y-110150976D01*
X150876000Y-110151333D01*
X150811551Y-110165321D01*
X150791691Y-110220397D01*
X150791333Y-110236000D01*
X150777345Y-110300449D01*
X150722269Y-110320309D01*
X150706667Y-110320667D01*
X150642218Y-110334655D01*
X150622357Y-110389731D01*
X150622000Y-110405334D01*
X150625165Y-110448399D01*
X150644173Y-110473642D01*
X150693291Y-110485820D01*
X150786786Y-110489689D01*
X150876000Y-110490000D01*
X151005195Y-110491055D01*
X151080926Y-110497391D01*
X151117461Y-110513764D01*
X151129066Y-110544929D01*
X151130000Y-110574667D01*
X151135490Y-110624916D01*
X151163508Y-110649984D01*
X151231376Y-110658531D01*
X151299333Y-110659334D01*
X151399831Y-110656588D01*
X151449967Y-110642579D01*
X151467062Y-110608646D01*
X151468667Y-110574667D01*
X151454679Y-110510218D01*
X151399603Y-110490358D01*
X151384000Y-110490000D01*
X151319551Y-110476012D01*
X151299691Y-110420936D01*
X151299333Y-110405334D01*
X151285345Y-110340885D01*
X151230269Y-110321024D01*
X151214667Y-110320667D01*
X151150218Y-110306679D01*
X151130357Y-110251603D01*
X151130000Y-110236000D01*
X151135490Y-110185751D01*
X151163508Y-110160683D01*
X151231376Y-110152136D01*
X151299333Y-110151333D01*
X151399831Y-110154079D01*
X151449967Y-110168088D01*
X151467062Y-110202021D01*
X151468667Y-110236000D01*
X151482654Y-110300449D01*
X151537730Y-110320309D01*
X151553333Y-110320667D01*
X151617782Y-110306679D01*
X151637642Y-110251603D01*
X151638000Y-110236000D01*
X151651988Y-110171551D01*
X151707064Y-110151691D01*
X151722666Y-110151333D01*
X151787115Y-110165321D01*
X151806976Y-110220397D01*
X151807333Y-110236000D01*
X151793345Y-110300449D01*
X151738269Y-110320309D01*
X151722666Y-110320667D01*
X151658218Y-110334655D01*
X151638357Y-110389731D01*
X151638000Y-110405334D01*
X151651988Y-110469782D01*
X151707064Y-110489643D01*
X151722666Y-110490000D01*
X151787115Y-110503988D01*
X151806976Y-110559064D01*
X151807333Y-110574667D01*
X151801843Y-110624916D01*
X151773825Y-110649984D01*
X151705957Y-110658531D01*
X151638000Y-110659334D01*
X151468667Y-110659334D01*
X151468667Y-110828667D01*
X151466354Y-110913333D01*
X151638000Y-110913333D01*
X151651988Y-110848885D01*
X151707064Y-110829024D01*
X151722666Y-110828667D01*
X151787115Y-110842655D01*
X151806976Y-110897731D01*
X151807333Y-110913333D01*
X151793345Y-110977782D01*
X151738269Y-110997643D01*
X151722666Y-110998000D01*
X151658218Y-110984012D01*
X151638357Y-110928936D01*
X151638000Y-110913333D01*
X151466354Y-110913333D01*
X151465921Y-110929164D01*
X151451912Y-110979300D01*
X151417979Y-110996396D01*
X151384000Y-110998000D01*
X151319551Y-111011988D01*
X151299691Y-111067064D01*
X151299333Y-111082667D01*
X151302499Y-111125732D01*
X151321507Y-111150976D01*
X151370625Y-111163154D01*
X151464120Y-111167022D01*
X151553333Y-111167333D01*
X151682528Y-111168389D01*
X151758259Y-111174725D01*
X151794794Y-111191097D01*
X151806399Y-111222262D01*
X151807333Y-111252000D01*
X151805272Y-111290423D01*
X151790845Y-111315003D01*
X151751685Y-111328834D01*
X151675425Y-111335006D01*
X151549701Y-111336611D01*
X151468667Y-111336667D01*
X151314977Y-111336152D01*
X151216654Y-111332545D01*
X151161332Y-111322755D01*
X151136644Y-111303690D01*
X151130224Y-111272259D01*
X151130000Y-111252000D01*
X151116012Y-111187551D01*
X151060936Y-111167691D01*
X151045333Y-111167333D01*
X150980884Y-111181321D01*
X150961024Y-111236397D01*
X150960667Y-111252000D01*
X150946679Y-111316449D01*
X150891603Y-111336309D01*
X150876000Y-111336667D01*
X150825751Y-111342157D01*
X150800683Y-111370175D01*
X150792135Y-111438043D01*
X150791333Y-111506000D01*
X150794078Y-111606498D01*
X150808087Y-111656634D01*
X150842021Y-111673729D01*
X150876000Y-111675333D01*
X150919065Y-111678499D01*
X150944309Y-111697507D01*
X150956487Y-111746625D01*
X150960355Y-111840120D01*
X150960370Y-111844667D01*
X151130000Y-111844667D01*
X151130515Y-111690977D01*
X151134122Y-111592654D01*
X151143912Y-111537332D01*
X151162977Y-111512644D01*
X151194408Y-111506224D01*
X151214667Y-111506000D01*
X151279115Y-111519988D01*
X151298976Y-111575064D01*
X151299333Y-111590667D01*
X151638000Y-111590667D01*
X151651988Y-111526218D01*
X151707064Y-111506358D01*
X151722666Y-111506000D01*
X151787115Y-111519988D01*
X151806976Y-111575064D01*
X151807333Y-111590667D01*
X151793345Y-111655116D01*
X151738269Y-111674976D01*
X151722666Y-111675333D01*
X151658218Y-111661346D01*
X151638357Y-111606270D01*
X151638000Y-111590667D01*
X151299333Y-111590667D01*
X151313321Y-111655116D01*
X151368397Y-111674976D01*
X151384000Y-111675333D01*
X151448449Y-111689321D01*
X151468309Y-111744397D01*
X151468667Y-111760000D01*
X151474157Y-111810249D01*
X151502175Y-111835317D01*
X151570042Y-111843865D01*
X151638000Y-111844667D01*
X151738497Y-111847412D01*
X151788633Y-111861421D01*
X151805729Y-111895355D01*
X151807333Y-111929334D01*
X151793345Y-111993782D01*
X151738269Y-112013643D01*
X151722666Y-112014000D01*
X151658218Y-112027988D01*
X151638357Y-112083064D01*
X151638000Y-112098667D01*
X151624012Y-112163116D01*
X151568936Y-112182976D01*
X151553333Y-112183333D01*
X151503084Y-112177843D01*
X151478016Y-112149825D01*
X151469469Y-112081958D01*
X151468667Y-112014000D01*
X151465921Y-111913503D01*
X151451912Y-111863367D01*
X151417979Y-111846271D01*
X151384000Y-111844667D01*
X151333751Y-111850157D01*
X151308683Y-111878175D01*
X151300135Y-111946043D01*
X151299333Y-112014000D01*
X151296588Y-112114498D01*
X151282579Y-112164634D01*
X151248645Y-112181729D01*
X151214667Y-112183333D01*
X151176244Y-112181272D01*
X151151663Y-112166845D01*
X151137833Y-112127685D01*
X151131661Y-112051426D01*
X151130056Y-111925701D01*
X151130000Y-111844667D01*
X150960370Y-111844667D01*
X150960667Y-111929334D01*
X150959611Y-112058529D01*
X150953275Y-112134260D01*
X150936903Y-112170794D01*
X150905738Y-112182400D01*
X150876000Y-112183333D01*
X150811551Y-112169346D01*
X150791691Y-112114270D01*
X150791333Y-112098667D01*
X150777345Y-112034218D01*
X150722269Y-112014358D01*
X150706667Y-112014000D01*
X150642218Y-112027988D01*
X150622357Y-112083064D01*
X150622000Y-112098667D01*
X150608012Y-112163116D01*
X150552936Y-112182976D01*
X150537333Y-112183333D01*
X150472884Y-112169346D01*
X150453024Y-112114270D01*
X150452667Y-112098667D01*
X150466654Y-112034218D01*
X150521730Y-112014358D01*
X150537333Y-112014000D01*
X150587582Y-112008510D01*
X150612650Y-111980492D01*
X150621198Y-111912624D01*
X150622000Y-111844667D01*
X150622000Y-111675333D01*
X150283333Y-111675333D01*
X150283333Y-111929334D01*
X150282278Y-112058529D01*
X150275942Y-112134260D01*
X150259569Y-112170794D01*
X150228404Y-112182400D01*
X150198666Y-112183333D01*
X150148418Y-112177843D01*
X150123350Y-112149825D01*
X150114802Y-112081958D01*
X150114000Y-112014000D01*
X150114000Y-111844667D01*
X149944666Y-111844667D01*
X149844169Y-111847412D01*
X149794033Y-111861421D01*
X149776937Y-111895355D01*
X149775333Y-111929334D01*
X149789321Y-111993782D01*
X149844397Y-112013643D01*
X149860000Y-112014000D01*
X149924449Y-112027988D01*
X149944309Y-112083064D01*
X149944666Y-112098667D01*
X149930679Y-112163116D01*
X149875603Y-112182976D01*
X149860000Y-112183333D01*
X149795551Y-112169346D01*
X149775691Y-112114270D01*
X149775333Y-112098667D01*
X149761345Y-112034218D01*
X149706269Y-112014358D01*
X149690667Y-112014000D01*
X149626218Y-112027988D01*
X149606357Y-112083064D01*
X149606000Y-112098667D01*
X149592012Y-112163116D01*
X149536936Y-112182976D01*
X149521333Y-112183333D01*
X149456884Y-112169346D01*
X149437024Y-112114270D01*
X149436667Y-112098667D01*
X149422679Y-112034218D01*
X149367603Y-112014358D01*
X149352000Y-112014000D01*
X149287551Y-112027988D01*
X149267691Y-112083064D01*
X149267333Y-112098667D01*
X149253345Y-112163116D01*
X149198269Y-112182976D01*
X149182666Y-112183333D01*
X149118218Y-112169346D01*
X149098357Y-112114270D01*
X149098000Y-112098667D01*
X149084012Y-112034218D01*
X149028936Y-112014358D01*
X149013333Y-112014000D01*
X148948884Y-112027988D01*
X148929024Y-112083064D01*
X148928667Y-112098667D01*
X148914679Y-112163116D01*
X148859603Y-112182976D01*
X148844000Y-112183333D01*
X148793751Y-112177843D01*
X148768683Y-112149825D01*
X148760135Y-112081958D01*
X148759333Y-112014000D01*
X148756588Y-111913503D01*
X148742579Y-111863367D01*
X148708645Y-111846271D01*
X148674666Y-111844667D01*
X148624418Y-111850157D01*
X148599350Y-111878175D01*
X148590802Y-111946043D01*
X148590000Y-112014000D01*
X148587255Y-112114498D01*
X148573246Y-112164634D01*
X148539312Y-112181729D01*
X148505333Y-112183333D01*
X148420667Y-112183333D01*
X148217467Y-112183333D01*
X148217467Y-112386533D01*
X152010533Y-112386533D01*
X152010533Y-108593467D01*
X152010533Y-108593467D01*
G37*
X152010533Y-108593467D02*
X148217467Y-108593467D01*
X148217467Y-112183333D01*
X148420667Y-112183333D01*
X148420667Y-108796667D01*
X151807333Y-108796667D01*
X151807333Y-108881334D01*
X151793345Y-108945782D01*
X151738269Y-108965643D01*
X151722666Y-108966000D01*
X151658218Y-108979988D01*
X151638357Y-109035064D01*
X151638000Y-109050667D01*
X151651988Y-109115116D01*
X151707064Y-109134976D01*
X151722666Y-109135333D01*
X151787115Y-109149321D01*
X151806976Y-109204397D01*
X151807333Y-109220000D01*
X151793345Y-109284449D01*
X151738269Y-109304309D01*
X151722666Y-109304667D01*
X151658218Y-109290679D01*
X151638357Y-109235603D01*
X151638000Y-109220000D01*
X151624012Y-109155551D01*
X151568936Y-109135691D01*
X151553333Y-109135333D01*
X151488884Y-109149321D01*
X151469024Y-109204397D01*
X151468667Y-109220000D01*
X151454679Y-109284449D01*
X151399603Y-109304309D01*
X151384000Y-109304667D01*
X151319551Y-109318655D01*
X151299691Y-109373731D01*
X151299333Y-109389333D01*
X151285345Y-109453782D01*
X151230269Y-109473643D01*
X151214667Y-109474000D01*
X151171601Y-109477166D01*
X151146358Y-109496174D01*
X151134180Y-109545292D01*
X151130311Y-109638787D01*
X151130000Y-109728000D01*
X151299333Y-109728000D01*
X151313321Y-109663551D01*
X151368397Y-109643691D01*
X151384000Y-109643333D01*
X151448449Y-109629346D01*
X151468309Y-109574270D01*
X151468667Y-109558667D01*
X151474157Y-109508418D01*
X151502175Y-109483350D01*
X151570042Y-109474802D01*
X151638000Y-109474000D01*
X151738497Y-109476745D01*
X151788633Y-109490754D01*
X151805729Y-109524688D01*
X151807333Y-109558667D01*
X151793345Y-109623116D01*
X151738269Y-109642976D01*
X151722666Y-109643333D01*
X151658218Y-109657321D01*
X151638357Y-109712397D01*
X151638000Y-109728000D01*
X151651988Y-109792449D01*
X151707064Y-109812309D01*
X151722666Y-109812667D01*
X151787115Y-109826655D01*
X151806976Y-109881731D01*
X151807333Y-109897333D01*
X151801843Y-109947582D01*
X151773825Y-109972650D01*
X151705957Y-109981198D01*
X151638000Y-109982000D01*
X151537502Y-109979255D01*
X151487366Y-109965246D01*
X151470271Y-109931312D01*
X151468667Y-109897333D01*
X151454679Y-109832885D01*
X151399603Y-109813024D01*
X151384000Y-109812667D01*
X151319551Y-109798679D01*
X151299691Y-109743603D01*
X151299333Y-109728000D01*
X151130000Y-109728000D01*
X151128945Y-109857195D01*
X151122609Y-109932926D01*
X151106236Y-109969461D01*
X151075071Y-109981066D01*
X151045333Y-109982000D01*
X150980884Y-109995988D01*
X150961024Y-110051064D01*
X150960667Y-110066667D01*
X150946679Y-110131116D01*
X150891603Y-110150976D01*
X150876000Y-110151333D01*
X150811551Y-110165321D01*
X150791691Y-110220397D01*
X150791333Y-110236000D01*
X150777345Y-110300449D01*
X150722269Y-110320309D01*
X150706667Y-110320667D01*
X150642218Y-110334655D01*
X150622357Y-110389731D01*
X150622000Y-110405334D01*
X150625165Y-110448399D01*
X150644173Y-110473642D01*
X150693291Y-110485820D01*
X150786786Y-110489689D01*
X150876000Y-110490000D01*
X151005195Y-110491055D01*
X151080926Y-110497391D01*
X151117461Y-110513764D01*
X151129066Y-110544929D01*
X151130000Y-110574667D01*
X151135490Y-110624916D01*
X151163508Y-110649984D01*
X151231376Y-110658531D01*
X151299333Y-110659334D01*
X151399831Y-110656588D01*
X151449967Y-110642579D01*
X151467062Y-110608646D01*
X151468667Y-110574667D01*
X151454679Y-110510218D01*
X151399603Y-110490358D01*
X151384000Y-110490000D01*
X151319551Y-110476012D01*
X151299691Y-110420936D01*
X151299333Y-110405334D01*
X151285345Y-110340885D01*
X151230269Y-110321024D01*
X151214667Y-110320667D01*
X151150218Y-110306679D01*
X151130357Y-110251603D01*
X151130000Y-110236000D01*
X151135490Y-110185751D01*
X151163508Y-110160683D01*
X151231376Y-110152136D01*
X151299333Y-110151333D01*
X151399831Y-110154079D01*
X151449967Y-110168088D01*
X151467062Y-110202021D01*
X151468667Y-110236000D01*
X151482654Y-110300449D01*
X151537730Y-110320309D01*
X151553333Y-110320667D01*
X151617782Y-110306679D01*
X151637642Y-110251603D01*
X151638000Y-110236000D01*
X151651988Y-110171551D01*
X151707064Y-110151691D01*
X151722666Y-110151333D01*
X151787115Y-110165321D01*
X151806976Y-110220397D01*
X151807333Y-110236000D01*
X151793345Y-110300449D01*
X151738269Y-110320309D01*
X151722666Y-110320667D01*
X151658218Y-110334655D01*
X151638357Y-110389731D01*
X151638000Y-110405334D01*
X151651988Y-110469782D01*
X151707064Y-110489643D01*
X151722666Y-110490000D01*
X151787115Y-110503988D01*
X151806976Y-110559064D01*
X151807333Y-110574667D01*
X151801843Y-110624916D01*
X151773825Y-110649984D01*
X151705957Y-110658531D01*
X151638000Y-110659334D01*
X151468667Y-110659334D01*
X151468667Y-110828667D01*
X151466354Y-110913333D01*
X151638000Y-110913333D01*
X151651988Y-110848885D01*
X151707064Y-110829024D01*
X151722666Y-110828667D01*
X151787115Y-110842655D01*
X151806976Y-110897731D01*
X151807333Y-110913333D01*
X151793345Y-110977782D01*
X151738269Y-110997643D01*
X151722666Y-110998000D01*
X151658218Y-110984012D01*
X151638357Y-110928936D01*
X151638000Y-110913333D01*
X151466354Y-110913333D01*
X151465921Y-110929164D01*
X151451912Y-110979300D01*
X151417979Y-110996396D01*
X151384000Y-110998000D01*
X151319551Y-111011988D01*
X151299691Y-111067064D01*
X151299333Y-111082667D01*
X151302499Y-111125732D01*
X151321507Y-111150976D01*
X151370625Y-111163154D01*
X151464120Y-111167022D01*
X151553333Y-111167333D01*
X151682528Y-111168389D01*
X151758259Y-111174725D01*
X151794794Y-111191097D01*
X151806399Y-111222262D01*
X151807333Y-111252000D01*
X151805272Y-111290423D01*
X151790845Y-111315003D01*
X151751685Y-111328834D01*
X151675425Y-111335006D01*
X151549701Y-111336611D01*
X151468667Y-111336667D01*
X151314977Y-111336152D01*
X151216654Y-111332545D01*
X151161332Y-111322755D01*
X151136644Y-111303690D01*
X151130224Y-111272259D01*
X151130000Y-111252000D01*
X151116012Y-111187551D01*
X151060936Y-111167691D01*
X151045333Y-111167333D01*
X150980884Y-111181321D01*
X150961024Y-111236397D01*
X150960667Y-111252000D01*
X150946679Y-111316449D01*
X150891603Y-111336309D01*
X150876000Y-111336667D01*
X150825751Y-111342157D01*
X150800683Y-111370175D01*
X150792135Y-111438043D01*
X150791333Y-111506000D01*
X150794078Y-111606498D01*
X150808087Y-111656634D01*
X150842021Y-111673729D01*
X150876000Y-111675333D01*
X150919065Y-111678499D01*
X150944309Y-111697507D01*
X150956487Y-111746625D01*
X150960355Y-111840120D01*
X150960370Y-111844667D01*
X151130000Y-111844667D01*
X151130515Y-111690977D01*
X151134122Y-111592654D01*
X151143912Y-111537332D01*
X151162977Y-111512644D01*
X151194408Y-111506224D01*
X151214667Y-111506000D01*
X151279115Y-111519988D01*
X151298976Y-111575064D01*
X151299333Y-111590667D01*
X151638000Y-111590667D01*
X151651988Y-111526218D01*
X151707064Y-111506358D01*
X151722666Y-111506000D01*
X151787115Y-111519988D01*
X151806976Y-111575064D01*
X151807333Y-111590667D01*
X151793345Y-111655116D01*
X151738269Y-111674976D01*
X151722666Y-111675333D01*
X151658218Y-111661346D01*
X151638357Y-111606270D01*
X151638000Y-111590667D01*
X151299333Y-111590667D01*
X151313321Y-111655116D01*
X151368397Y-111674976D01*
X151384000Y-111675333D01*
X151448449Y-111689321D01*
X151468309Y-111744397D01*
X151468667Y-111760000D01*
X151474157Y-111810249D01*
X151502175Y-111835317D01*
X151570042Y-111843865D01*
X151638000Y-111844667D01*
X151738497Y-111847412D01*
X151788633Y-111861421D01*
X151805729Y-111895355D01*
X151807333Y-111929334D01*
X151793345Y-111993782D01*
X151738269Y-112013643D01*
X151722666Y-112014000D01*
X151658218Y-112027988D01*
X151638357Y-112083064D01*
X151638000Y-112098667D01*
X151624012Y-112163116D01*
X151568936Y-112182976D01*
X151553333Y-112183333D01*
X151503084Y-112177843D01*
X151478016Y-112149825D01*
X151469469Y-112081958D01*
X151468667Y-112014000D01*
X151465921Y-111913503D01*
X151451912Y-111863367D01*
X151417979Y-111846271D01*
X151384000Y-111844667D01*
X151333751Y-111850157D01*
X151308683Y-111878175D01*
X151300135Y-111946043D01*
X151299333Y-112014000D01*
X151296588Y-112114498D01*
X151282579Y-112164634D01*
X151248645Y-112181729D01*
X151214667Y-112183333D01*
X151176244Y-112181272D01*
X151151663Y-112166845D01*
X151137833Y-112127685D01*
X151131661Y-112051426D01*
X151130056Y-111925701D01*
X151130000Y-111844667D01*
X150960370Y-111844667D01*
X150960667Y-111929334D01*
X150959611Y-112058529D01*
X150953275Y-112134260D01*
X150936903Y-112170794D01*
X150905738Y-112182400D01*
X150876000Y-112183333D01*
X150811551Y-112169346D01*
X150791691Y-112114270D01*
X150791333Y-112098667D01*
X150777345Y-112034218D01*
X150722269Y-112014358D01*
X150706667Y-112014000D01*
X150642218Y-112027988D01*
X150622357Y-112083064D01*
X150622000Y-112098667D01*
X150608012Y-112163116D01*
X150552936Y-112182976D01*
X150537333Y-112183333D01*
X150472884Y-112169346D01*
X150453024Y-112114270D01*
X150452667Y-112098667D01*
X150466654Y-112034218D01*
X150521730Y-112014358D01*
X150537333Y-112014000D01*
X150587582Y-112008510D01*
X150612650Y-111980492D01*
X150621198Y-111912624D01*
X150622000Y-111844667D01*
X150622000Y-111675333D01*
X150283333Y-111675333D01*
X150283333Y-111929334D01*
X150282278Y-112058529D01*
X150275942Y-112134260D01*
X150259569Y-112170794D01*
X150228404Y-112182400D01*
X150198666Y-112183333D01*
X150148418Y-112177843D01*
X150123350Y-112149825D01*
X150114802Y-112081958D01*
X150114000Y-112014000D01*
X150114000Y-111844667D01*
X149944666Y-111844667D01*
X149844169Y-111847412D01*
X149794033Y-111861421D01*
X149776937Y-111895355D01*
X149775333Y-111929334D01*
X149789321Y-111993782D01*
X149844397Y-112013643D01*
X149860000Y-112014000D01*
X149924449Y-112027988D01*
X149944309Y-112083064D01*
X149944666Y-112098667D01*
X149930679Y-112163116D01*
X149875603Y-112182976D01*
X149860000Y-112183333D01*
X149795551Y-112169346D01*
X149775691Y-112114270D01*
X149775333Y-112098667D01*
X149761345Y-112034218D01*
X149706269Y-112014358D01*
X149690667Y-112014000D01*
X149626218Y-112027988D01*
X149606357Y-112083064D01*
X149606000Y-112098667D01*
X149592012Y-112163116D01*
X149536936Y-112182976D01*
X149521333Y-112183333D01*
X149456884Y-112169346D01*
X149437024Y-112114270D01*
X149436667Y-112098667D01*
X149422679Y-112034218D01*
X149367603Y-112014358D01*
X149352000Y-112014000D01*
X149287551Y-112027988D01*
X149267691Y-112083064D01*
X149267333Y-112098667D01*
X149253345Y-112163116D01*
X149198269Y-112182976D01*
X149182666Y-112183333D01*
X149118218Y-112169346D01*
X149098357Y-112114270D01*
X149098000Y-112098667D01*
X149084012Y-112034218D01*
X149028936Y-112014358D01*
X149013333Y-112014000D01*
X148948884Y-112027988D01*
X148929024Y-112083064D01*
X148928667Y-112098667D01*
X148914679Y-112163116D01*
X148859603Y-112182976D01*
X148844000Y-112183333D01*
X148793751Y-112177843D01*
X148768683Y-112149825D01*
X148760135Y-112081958D01*
X148759333Y-112014000D01*
X148756588Y-111913503D01*
X148742579Y-111863367D01*
X148708645Y-111846271D01*
X148674666Y-111844667D01*
X148624418Y-111850157D01*
X148599350Y-111878175D01*
X148590802Y-111946043D01*
X148590000Y-112014000D01*
X148587255Y-112114498D01*
X148573246Y-112164634D01*
X148539312Y-112181729D01*
X148505333Y-112183333D01*
X148420667Y-112183333D01*
X148217467Y-112183333D01*
X148217467Y-112386533D01*
X152010533Y-112386533D01*
X152010533Y-108593467D01*
G36*
X150114000Y-109812667D02*
X149606000Y-109812667D01*
X149606000Y-109558667D01*
X149604945Y-109429472D01*
X149598609Y-109353741D01*
X149582236Y-109317206D01*
X149551071Y-109305601D01*
X149521333Y-109304667D01*
X149456884Y-109290679D01*
X149437024Y-109235603D01*
X149436667Y-109220000D01*
X149422679Y-109155551D01*
X149367603Y-109135691D01*
X149352000Y-109135333D01*
X149287551Y-109121346D01*
X149267691Y-109066270D01*
X149267333Y-109050667D01*
X149261843Y-109000418D01*
X149233825Y-108975350D01*
X149165957Y-108966802D01*
X149098000Y-108966000D01*
X148928667Y-108966000D01*
X148928667Y-109135333D01*
X148925921Y-109235831D01*
X148911912Y-109285967D01*
X148877979Y-109303063D01*
X148844000Y-109304667D01*
X148779551Y-109290679D01*
X148759691Y-109235603D01*
X148759333Y-109220000D01*
X148745345Y-109155551D01*
X148690269Y-109135691D01*
X148674666Y-109135333D01*
X148610218Y-109149321D01*
X148590357Y-109204397D01*
X148590000Y-109220000D01*
X148603988Y-109284449D01*
X148659064Y-109304309D01*
X148674666Y-109304667D01*
X148739115Y-109318655D01*
X148758976Y-109373731D01*
X148759333Y-109389333D01*
X148745345Y-109453782D01*
X148690269Y-109473643D01*
X148674666Y-109474000D01*
X148610218Y-109487988D01*
X148590357Y-109543064D01*
X148590000Y-109558667D01*
X148759333Y-109558667D01*
X148773321Y-109494218D01*
X148828397Y-109474358D01*
X148844000Y-109474000D01*
X148908449Y-109460012D01*
X148928309Y-109404936D01*
X148928667Y-109389333D01*
X148942654Y-109324885D01*
X148997730Y-109305024D01*
X149013333Y-109304667D01*
X149077782Y-109318655D01*
X149097642Y-109373731D01*
X149098000Y-109389333D01*
X149111988Y-109453782D01*
X149167064Y-109473643D01*
X149182666Y-109474000D01*
X149247115Y-109487988D01*
X149266976Y-109543064D01*
X149267333Y-109558667D01*
X149264168Y-109601732D01*
X149245160Y-109626976D01*
X149196042Y-109639154D01*
X149102547Y-109643022D01*
X149013333Y-109643333D01*
X148884138Y-109642278D01*
X148808407Y-109635942D01*
X148771872Y-109619570D01*
X148760267Y-109588405D01*
X148759333Y-109558667D01*
X148590000Y-109558667D01*
X148603988Y-109623116D01*
X148659064Y-109642976D01*
X148674666Y-109643333D01*
X148739115Y-109657321D01*
X148758976Y-109712397D01*
X148759333Y-109728000D01*
X148764823Y-109778249D01*
X148792841Y-109803317D01*
X148860709Y-109811865D01*
X148928667Y-109812667D01*
X149029164Y-109815412D01*
X149079300Y-109829421D01*
X149096396Y-109863355D01*
X149098000Y-109897333D01*
X149436667Y-109897333D01*
X149450654Y-109832885D01*
X149505730Y-109813024D01*
X149521333Y-109812667D01*
X149585782Y-109826655D01*
X149605642Y-109881731D01*
X149606000Y-109897333D01*
X150283333Y-109897333D01*
X150297321Y-109832885D01*
X150352397Y-109813024D01*
X150368000Y-109812667D01*
X150418249Y-109807177D01*
X150443317Y-109779159D01*
X150451864Y-109711291D01*
X150452667Y-109643333D01*
X150455412Y-109542836D01*
X150469421Y-109492700D01*
X150503354Y-109475604D01*
X150537333Y-109474000D01*
X150601782Y-109460012D01*
X150621642Y-109404936D01*
X150622000Y-109389333D01*
X150608012Y-109324885D01*
X150552936Y-109305024D01*
X150537333Y-109304667D01*
X150472884Y-109290679D01*
X150453024Y-109235603D01*
X150452667Y-109220000D01*
X150466654Y-109155551D01*
X150521730Y-109135691D01*
X150537333Y-109135333D01*
X150601782Y-109149321D01*
X150621642Y-109204397D01*
X150622000Y-109220000D01*
X150635988Y-109284449D01*
X150691064Y-109304309D01*
X150706667Y-109304667D01*
X150756915Y-109310157D01*
X150781983Y-109338175D01*
X150790531Y-109406043D01*
X150791333Y-109474000D01*
X150788588Y-109574498D01*
X150774579Y-109624634D01*
X150740645Y-109641729D01*
X150706667Y-109643333D01*
X150642218Y-109657321D01*
X150622357Y-109712397D01*
X150622000Y-109728000D01*
X150608012Y-109792449D01*
X150552936Y-109812309D01*
X150537333Y-109812667D01*
X150472884Y-109826655D01*
X150453024Y-109881731D01*
X150452667Y-109897333D01*
X150466654Y-109961782D01*
X150521730Y-109981643D01*
X150537333Y-109982000D01*
X150601782Y-109995988D01*
X150621642Y-110051064D01*
X150622000Y-110066667D01*
X150608012Y-110131116D01*
X150552936Y-110150976D01*
X150537333Y-110151333D01*
X150472884Y-110137346D01*
X150453024Y-110082270D01*
X150452667Y-110066667D01*
X150438679Y-110002218D01*
X150383603Y-109982358D01*
X150368000Y-109982000D01*
X150303551Y-109968012D01*
X150283691Y-109912936D01*
X150283333Y-109897333D01*
X149606000Y-109897333D01*
X149592012Y-109961782D01*
X149536936Y-109981643D01*
X149521333Y-109982000D01*
X149456884Y-109968012D01*
X149437024Y-109912936D01*
X149436667Y-109897333D01*
X149098000Y-109897333D01*
X149111988Y-109961782D01*
X149167064Y-109981643D01*
X149182666Y-109982000D01*
X149232915Y-109987490D01*
X149257983Y-110015508D01*
X149266531Y-110083376D01*
X149267333Y-110151333D01*
X149264588Y-110251831D01*
X149250579Y-110301967D01*
X149216645Y-110319063D01*
X149182666Y-110320667D01*
X149118218Y-110306679D01*
X149098357Y-110251603D01*
X149098000Y-110236000D01*
X149084012Y-110171551D01*
X149028936Y-110151691D01*
X149013333Y-110151333D01*
X148948884Y-110137346D01*
X148929024Y-110082270D01*
X148928667Y-110066667D01*
X148923176Y-110016418D01*
X148895158Y-109991350D01*
X148827291Y-109982802D01*
X148759333Y-109982000D01*
X148590000Y-109982000D01*
X148590000Y-110151333D01*
X148592745Y-110251831D01*
X148606754Y-110301967D01*
X148640688Y-110319063D01*
X148674666Y-110320667D01*
X148739115Y-110334655D01*
X148758976Y-110389731D01*
X148759333Y-110405334D01*
X148745345Y-110469782D01*
X148690269Y-110489643D01*
X148674666Y-110490000D01*
X148624418Y-110495490D01*
X148599350Y-110523508D01*
X148592907Y-110574667D01*
X148759333Y-110574667D01*
X148773321Y-110510218D01*
X148828397Y-110490358D01*
X148844000Y-110490000D01*
X148908449Y-110476012D01*
X148928309Y-110420936D01*
X148928667Y-110405334D01*
X148914679Y-110340885D01*
X148859603Y-110321024D01*
X148844000Y-110320667D01*
X148779551Y-110306679D01*
X148759691Y-110251603D01*
X148759333Y-110236000D01*
X148773321Y-110171551D01*
X148828397Y-110151691D01*
X148844000Y-110151333D01*
X148908449Y-110165321D01*
X148928309Y-110220397D01*
X148928667Y-110236000D01*
X148942654Y-110300449D01*
X148997730Y-110320309D01*
X149013333Y-110320667D01*
X149077782Y-110334655D01*
X149097642Y-110389731D01*
X149098000Y-110405334D01*
X149111988Y-110469782D01*
X149167064Y-110489643D01*
X149182666Y-110490000D01*
X149247115Y-110476012D01*
X149266976Y-110420936D01*
X149267333Y-110405334D01*
X149272823Y-110355085D01*
X149300841Y-110330017D01*
X149368709Y-110321469D01*
X149436667Y-110320667D01*
X149537164Y-110317922D01*
X149587300Y-110303913D01*
X149604396Y-110269979D01*
X149606000Y-110236000D01*
X149611490Y-110185751D01*
X149639508Y-110160683D01*
X149707376Y-110152136D01*
X149775333Y-110151333D01*
X149875831Y-110148588D01*
X149925967Y-110134579D01*
X149943062Y-110100646D01*
X149944666Y-110066667D01*
X149958654Y-110002218D01*
X150013730Y-109982358D01*
X150029333Y-109982000D01*
X150079582Y-109987490D01*
X150104650Y-110015508D01*
X150113198Y-110083376D01*
X150114000Y-110151333D01*
X150111255Y-110251831D01*
X150097246Y-110301967D01*
X150063312Y-110319063D01*
X150029333Y-110320667D01*
X149964884Y-110334655D01*
X149945024Y-110389731D01*
X149944666Y-110405334D01*
X149958654Y-110469782D01*
X150013730Y-110489643D01*
X150029333Y-110490000D01*
X150093782Y-110503988D01*
X150113642Y-110559064D01*
X150114000Y-110574667D01*
X150100012Y-110639116D01*
X150044936Y-110658976D01*
X150029333Y-110659334D01*
X149979084Y-110664824D01*
X149954016Y-110692842D01*
X149945469Y-110760709D01*
X149944666Y-110828667D01*
X149941921Y-110929164D01*
X149927912Y-110979300D01*
X149893979Y-110996396D01*
X149860000Y-110998000D01*
X149795551Y-111011988D01*
X149775691Y-111067064D01*
X149775333Y-111082667D01*
X149789321Y-111147116D01*
X149844397Y-111166976D01*
X149860000Y-111167333D01*
X149924449Y-111181321D01*
X149944309Y-111236397D01*
X149944666Y-111252000D01*
X149930679Y-111316449D01*
X149875603Y-111336309D01*
X149860000Y-111336667D01*
X149795551Y-111350655D01*
X149775691Y-111405731D01*
X149775333Y-111421334D01*
X149761345Y-111485782D01*
X149706269Y-111505643D01*
X149690667Y-111506000D01*
X149626218Y-111519988D01*
X149606357Y-111575064D01*
X149606000Y-111590667D01*
X149603939Y-111629089D01*
X149589511Y-111653670D01*
X149550351Y-111667501D01*
X149474092Y-111673672D01*
X149348367Y-111675277D01*
X149267333Y-111675333D01*
X149113643Y-111674818D01*
X149015321Y-111671211D01*
X148959998Y-111661421D01*
X148935311Y-111642357D01*
X148928891Y-111610925D01*
X148928667Y-111590667D01*
X148934157Y-111540418D01*
X148962175Y-111515350D01*
X149030042Y-111506802D01*
X149098000Y-111506000D01*
X149198497Y-111503255D01*
X149248633Y-111489246D01*
X149265729Y-111455312D01*
X149267333Y-111421334D01*
X149281321Y-111356885D01*
X149336397Y-111337024D01*
X149352000Y-111336667D01*
X149416449Y-111322679D01*
X149436309Y-111267603D01*
X149436667Y-111252000D01*
X149422679Y-111187551D01*
X149367603Y-111167691D01*
X149352000Y-111167333D01*
X149287551Y-111153346D01*
X149267691Y-111098270D01*
X149267333Y-111082667D01*
X149253345Y-111018218D01*
X149198269Y-110998358D01*
X149182666Y-110998000D01*
X149118218Y-110984012D01*
X149098357Y-110928936D01*
X149098000Y-110913333D01*
X149084012Y-110848885D01*
X149028936Y-110829024D01*
X149013333Y-110828667D01*
X148948884Y-110814679D01*
X148929024Y-110759603D01*
X148928667Y-110744000D01*
X148914679Y-110679551D01*
X148859603Y-110659691D01*
X148844000Y-110659334D01*
X148779551Y-110645346D01*
X148759691Y-110590270D01*
X148759333Y-110574667D01*
X148592907Y-110574667D01*
X148590802Y-110591376D01*
X148590000Y-110659334D01*
X148592745Y-110759831D01*
X148606754Y-110809967D01*
X148640688Y-110827063D01*
X148674666Y-110828667D01*
X148739115Y-110842655D01*
X148758976Y-110897731D01*
X148759333Y-110913333D01*
X148745345Y-110977782D01*
X148690269Y-110997643D01*
X148674666Y-110998000D01*
X148610218Y-111011988D01*
X148590357Y-111067064D01*
X148590000Y-111082667D01*
X148593165Y-111125732D01*
X148612173Y-111150976D01*
X148661291Y-111163154D01*
X148754786Y-111167022D01*
X148844000Y-111167333D01*
X148973195Y-111168389D01*
X149048926Y-111174725D01*
X149085461Y-111191097D01*
X149097066Y-111222262D01*
X149098000Y-111252000D01*
X149092510Y-111302249D01*
X149064492Y-111327317D01*
X148996624Y-111335865D01*
X148928667Y-111336667D01*
X148759333Y-111336667D01*
X148759333Y-111506000D01*
X148762078Y-111606498D01*
X148776087Y-111656634D01*
X148810021Y-111673729D01*
X148844000Y-111675333D01*
X148908449Y-111689321D01*
X148928309Y-111744397D01*
X148928667Y-111760000D01*
X148942654Y-111824449D01*
X148997730Y-111844309D01*
X149013333Y-111844667D01*
X149077782Y-111858655D01*
X149097642Y-111913731D01*
X149098000Y-111929334D01*
X149111988Y-111993782D01*
X149167064Y-112013643D01*
X149182666Y-112014000D01*
X149247115Y-112000012D01*
X149266976Y-111944936D01*
X149267333Y-111929334D01*
X149270499Y-111886268D01*
X149289507Y-111861025D01*
X149338625Y-111848847D01*
X149432120Y-111844978D01*
X149521333Y-111844667D01*
X149775333Y-111844667D01*
X149775333Y-111675333D01*
X149778078Y-111574836D01*
X149792087Y-111524700D01*
X149826021Y-111507604D01*
X149860000Y-111506000D01*
X149924449Y-111519988D01*
X149944309Y-111575064D01*
X149944666Y-111590667D01*
X149958654Y-111655116D01*
X150013730Y-111674976D01*
X150029333Y-111675333D01*
X150093782Y-111661346D01*
X150113642Y-111606270D01*
X150114000Y-111590667D01*
X150127988Y-111526218D01*
X150183064Y-111506358D01*
X150198666Y-111506000D01*
X150263115Y-111492012D01*
X150282976Y-111436936D01*
X150283333Y-111421334D01*
X150297321Y-111356885D01*
X150352397Y-111337024D01*
X150368000Y-111336667D01*
X150432449Y-111322679D01*
X150452309Y-111267603D01*
X150452667Y-111252000D01*
X150438679Y-111187551D01*
X150383603Y-111167691D01*
X150368000Y-111167333D01*
X150303551Y-111181321D01*
X150283691Y-111236397D01*
X150283333Y-111252000D01*
X150269345Y-111316449D01*
X150214269Y-111336309D01*
X150198666Y-111336667D01*
X150134218Y-111322679D01*
X150114357Y-111267603D01*
X150114000Y-111252000D01*
X150100012Y-111187551D01*
X150044936Y-111167691D01*
X150029333Y-111167333D01*
X149964884Y-111153346D01*
X149945024Y-111098270D01*
X149944666Y-111082667D01*
X149958654Y-111018218D01*
X150013730Y-110998358D01*
X150029333Y-110998000D01*
X150093782Y-110984012D01*
X150113642Y-110928936D01*
X150114000Y-110913333D01*
X150119490Y-110863085D01*
X150147508Y-110838017D01*
X150215376Y-110829469D01*
X150283333Y-110828667D01*
X150383831Y-110831412D01*
X150433967Y-110845421D01*
X150451062Y-110879355D01*
X150452667Y-110913333D01*
X150466654Y-110977782D01*
X150521730Y-110997643D01*
X150537333Y-110998000D01*
X150601782Y-110984012D01*
X150621642Y-110928936D01*
X150622000Y-110913333D01*
X150608012Y-110848885D01*
X150552936Y-110829024D01*
X150537333Y-110828667D01*
X150472884Y-110814679D01*
X150453024Y-110759603D01*
X150452667Y-110744000D01*
X150438679Y-110679551D01*
X150383603Y-110659691D01*
X150368000Y-110659334D01*
X150324935Y-110656168D01*
X150299691Y-110637160D01*
X150287513Y-110588042D01*
X150283644Y-110494547D01*
X150283333Y-110405334D01*
X150284388Y-110276138D01*
X150290724Y-110200407D01*
X150307097Y-110163873D01*
X150338262Y-110152267D01*
X150368000Y-110151333D01*
X150432449Y-110165321D01*
X150452309Y-110220397D01*
X150452667Y-110236000D01*
X150466654Y-110300449D01*
X150521730Y-110320309D01*
X150537333Y-110320667D01*
X150601782Y-110306679D01*
X150621642Y-110251603D01*
X150622000Y-110236000D01*
X150635988Y-110171551D01*
X150691064Y-110151691D01*
X150706667Y-110151333D01*
X150771115Y-110137346D01*
X150790976Y-110082270D01*
X150791333Y-110066667D01*
X150777345Y-110002218D01*
X150722269Y-109982358D01*
X150706667Y-109982000D01*
X150642218Y-109968012D01*
X150622357Y-109912936D01*
X150622000Y-109897333D01*
X150635988Y-109832885D01*
X150691064Y-109813024D01*
X150706667Y-109812667D01*
X150771115Y-109798679D01*
X150790976Y-109743603D01*
X150791333Y-109728000D01*
X150805321Y-109663551D01*
X150860397Y-109643691D01*
X150876000Y-109643333D01*
X150926249Y-109637843D01*
X150951317Y-109609825D01*
X150959864Y-109541958D01*
X150960667Y-109474000D01*
X150957921Y-109373503D01*
X150943912Y-109323367D01*
X150909979Y-109306271D01*
X150876000Y-109304667D01*
X150811551Y-109290679D01*
X150791691Y-109235603D01*
X150791333Y-109220000D01*
X150777345Y-109155551D01*
X150722269Y-109135691D01*
X150706667Y-109135333D01*
X150642218Y-109121346D01*
X150622357Y-109066270D01*
X150622000Y-109050667D01*
X150616510Y-109000418D01*
X150588492Y-108975350D01*
X150520624Y-108966802D01*
X150452667Y-108966000D01*
X150283333Y-108966000D01*
X150283333Y-109135333D01*
X150286078Y-109235831D01*
X150300087Y-109285967D01*
X150334021Y-109303063D01*
X150368000Y-109304667D01*
X150432449Y-109318655D01*
X150452309Y-109373731D01*
X150452667Y-109389333D01*
X150447176Y-109439582D01*
X150419158Y-109464650D01*
X150351291Y-109473198D01*
X150283333Y-109474000D01*
X150114000Y-109474000D01*
X150114000Y-109812667D01*
X150114000Y-109812667D01*
G37*
X150114000Y-109812667D02*
X149606000Y-109812667D01*
X149606000Y-109558667D01*
X149604945Y-109429472D01*
X149598609Y-109353741D01*
X149582236Y-109317206D01*
X149551071Y-109305601D01*
X149521333Y-109304667D01*
X149456884Y-109290679D01*
X149437024Y-109235603D01*
X149436667Y-109220000D01*
X149422679Y-109155551D01*
X149367603Y-109135691D01*
X149352000Y-109135333D01*
X149287551Y-109121346D01*
X149267691Y-109066270D01*
X149267333Y-109050667D01*
X149261843Y-109000418D01*
X149233825Y-108975350D01*
X149165957Y-108966802D01*
X149098000Y-108966000D01*
X148928667Y-108966000D01*
X148928667Y-109135333D01*
X148925921Y-109235831D01*
X148911912Y-109285967D01*
X148877979Y-109303063D01*
X148844000Y-109304667D01*
X148779551Y-109290679D01*
X148759691Y-109235603D01*
X148759333Y-109220000D01*
X148745345Y-109155551D01*
X148690269Y-109135691D01*
X148674666Y-109135333D01*
X148610218Y-109149321D01*
X148590357Y-109204397D01*
X148590000Y-109220000D01*
X148603988Y-109284449D01*
X148659064Y-109304309D01*
X148674666Y-109304667D01*
X148739115Y-109318655D01*
X148758976Y-109373731D01*
X148759333Y-109389333D01*
X148745345Y-109453782D01*
X148690269Y-109473643D01*
X148674666Y-109474000D01*
X148610218Y-109487988D01*
X148590357Y-109543064D01*
X148590000Y-109558667D01*
X148759333Y-109558667D01*
X148773321Y-109494218D01*
X148828397Y-109474358D01*
X148844000Y-109474000D01*
X148908449Y-109460012D01*
X148928309Y-109404936D01*
X148928667Y-109389333D01*
X148942654Y-109324885D01*
X148997730Y-109305024D01*
X149013333Y-109304667D01*
X149077782Y-109318655D01*
X149097642Y-109373731D01*
X149098000Y-109389333D01*
X149111988Y-109453782D01*
X149167064Y-109473643D01*
X149182666Y-109474000D01*
X149247115Y-109487988D01*
X149266976Y-109543064D01*
X149267333Y-109558667D01*
X149264168Y-109601732D01*
X149245160Y-109626976D01*
X149196042Y-109639154D01*
X149102547Y-109643022D01*
X149013333Y-109643333D01*
X148884138Y-109642278D01*
X148808407Y-109635942D01*
X148771872Y-109619570D01*
X148760267Y-109588405D01*
X148759333Y-109558667D01*
X148590000Y-109558667D01*
X148603988Y-109623116D01*
X148659064Y-109642976D01*
X148674666Y-109643333D01*
X148739115Y-109657321D01*
X148758976Y-109712397D01*
X148759333Y-109728000D01*
X148764823Y-109778249D01*
X148792841Y-109803317D01*
X148860709Y-109811865D01*
X148928667Y-109812667D01*
X149029164Y-109815412D01*
X149079300Y-109829421D01*
X149096396Y-109863355D01*
X149098000Y-109897333D01*
X149436667Y-109897333D01*
X149450654Y-109832885D01*
X149505730Y-109813024D01*
X149521333Y-109812667D01*
X149585782Y-109826655D01*
X149605642Y-109881731D01*
X149606000Y-109897333D01*
X150283333Y-109897333D01*
X150297321Y-109832885D01*
X150352397Y-109813024D01*
X150368000Y-109812667D01*
X150418249Y-109807177D01*
X150443317Y-109779159D01*
X150451864Y-109711291D01*
X150452667Y-109643333D01*
X150455412Y-109542836D01*
X150469421Y-109492700D01*
X150503354Y-109475604D01*
X150537333Y-109474000D01*
X150601782Y-109460012D01*
X150621642Y-109404936D01*
X150622000Y-109389333D01*
X150608012Y-109324885D01*
X150552936Y-109305024D01*
X150537333Y-109304667D01*
X150472884Y-109290679D01*
X150453024Y-109235603D01*
X150452667Y-109220000D01*
X150466654Y-109155551D01*
X150521730Y-109135691D01*
X150537333Y-109135333D01*
X150601782Y-109149321D01*
X150621642Y-109204397D01*
X150622000Y-109220000D01*
X150635988Y-109284449D01*
X150691064Y-109304309D01*
X150706667Y-109304667D01*
X150756915Y-109310157D01*
X150781983Y-109338175D01*
X150790531Y-109406043D01*
X150791333Y-109474000D01*
X150788588Y-109574498D01*
X150774579Y-109624634D01*
X150740645Y-109641729D01*
X150706667Y-109643333D01*
X150642218Y-109657321D01*
X150622357Y-109712397D01*
X150622000Y-109728000D01*
X150608012Y-109792449D01*
X150552936Y-109812309D01*
X150537333Y-109812667D01*
X150472884Y-109826655D01*
X150453024Y-109881731D01*
X150452667Y-109897333D01*
X150466654Y-109961782D01*
X150521730Y-109981643D01*
X150537333Y-109982000D01*
X150601782Y-109995988D01*
X150621642Y-110051064D01*
X150622000Y-110066667D01*
X150608012Y-110131116D01*
X150552936Y-110150976D01*
X150537333Y-110151333D01*
X150472884Y-110137346D01*
X150453024Y-110082270D01*
X150452667Y-110066667D01*
X150438679Y-110002218D01*
X150383603Y-109982358D01*
X150368000Y-109982000D01*
X150303551Y-109968012D01*
X150283691Y-109912936D01*
X150283333Y-109897333D01*
X149606000Y-109897333D01*
X149592012Y-109961782D01*
X149536936Y-109981643D01*
X149521333Y-109982000D01*
X149456884Y-109968012D01*
X149437024Y-109912936D01*
X149436667Y-109897333D01*
X149098000Y-109897333D01*
X149111988Y-109961782D01*
X149167064Y-109981643D01*
X149182666Y-109982000D01*
X149232915Y-109987490D01*
X149257983Y-110015508D01*
X149266531Y-110083376D01*
X149267333Y-110151333D01*
X149264588Y-110251831D01*
X149250579Y-110301967D01*
X149216645Y-110319063D01*
X149182666Y-110320667D01*
X149118218Y-110306679D01*
X149098357Y-110251603D01*
X149098000Y-110236000D01*
X149084012Y-110171551D01*
X149028936Y-110151691D01*
X149013333Y-110151333D01*
X148948884Y-110137346D01*
X148929024Y-110082270D01*
X148928667Y-110066667D01*
X148923176Y-110016418D01*
X148895158Y-109991350D01*
X148827291Y-109982802D01*
X148759333Y-109982000D01*
X148590000Y-109982000D01*
X148590000Y-110151333D01*
X148592745Y-110251831D01*
X148606754Y-110301967D01*
X148640688Y-110319063D01*
X148674666Y-110320667D01*
X148739115Y-110334655D01*
X148758976Y-110389731D01*
X148759333Y-110405334D01*
X148745345Y-110469782D01*
X148690269Y-110489643D01*
X148674666Y-110490000D01*
X148624418Y-110495490D01*
X148599350Y-110523508D01*
X148592907Y-110574667D01*
X148759333Y-110574667D01*
X148773321Y-110510218D01*
X148828397Y-110490358D01*
X148844000Y-110490000D01*
X148908449Y-110476012D01*
X148928309Y-110420936D01*
X148928667Y-110405334D01*
X148914679Y-110340885D01*
X148859603Y-110321024D01*
X148844000Y-110320667D01*
X148779551Y-110306679D01*
X148759691Y-110251603D01*
X148759333Y-110236000D01*
X148773321Y-110171551D01*
X148828397Y-110151691D01*
X148844000Y-110151333D01*
X148908449Y-110165321D01*
X148928309Y-110220397D01*
X148928667Y-110236000D01*
X148942654Y-110300449D01*
X148997730Y-110320309D01*
X149013333Y-110320667D01*
X149077782Y-110334655D01*
X149097642Y-110389731D01*
X149098000Y-110405334D01*
X149111988Y-110469782D01*
X149167064Y-110489643D01*
X149182666Y-110490000D01*
X149247115Y-110476012D01*
X149266976Y-110420936D01*
X149267333Y-110405334D01*
X149272823Y-110355085D01*
X149300841Y-110330017D01*
X149368709Y-110321469D01*
X149436667Y-110320667D01*
X149537164Y-110317922D01*
X149587300Y-110303913D01*
X149604396Y-110269979D01*
X149606000Y-110236000D01*
X149611490Y-110185751D01*
X149639508Y-110160683D01*
X149707376Y-110152136D01*
X149775333Y-110151333D01*
X149875831Y-110148588D01*
X149925967Y-110134579D01*
X149943062Y-110100646D01*
X149944666Y-110066667D01*
X149958654Y-110002218D01*
X150013730Y-109982358D01*
X150029333Y-109982000D01*
X150079582Y-109987490D01*
X150104650Y-110015508D01*
X150113198Y-110083376D01*
X150114000Y-110151333D01*
X150111255Y-110251831D01*
X150097246Y-110301967D01*
X150063312Y-110319063D01*
X150029333Y-110320667D01*
X149964884Y-110334655D01*
X149945024Y-110389731D01*
X149944666Y-110405334D01*
X149958654Y-110469782D01*
X150013730Y-110489643D01*
X150029333Y-110490000D01*
X150093782Y-110503988D01*
X150113642Y-110559064D01*
X150114000Y-110574667D01*
X150100012Y-110639116D01*
X150044936Y-110658976D01*
X150029333Y-110659334D01*
X149979084Y-110664824D01*
X149954016Y-110692842D01*
X149945469Y-110760709D01*
X149944666Y-110828667D01*
X149941921Y-110929164D01*
X149927912Y-110979300D01*
X149893979Y-110996396D01*
X149860000Y-110998000D01*
X149795551Y-111011988D01*
X149775691Y-111067064D01*
X149775333Y-111082667D01*
X149789321Y-111147116D01*
X149844397Y-111166976D01*
X149860000Y-111167333D01*
X149924449Y-111181321D01*
X149944309Y-111236397D01*
X149944666Y-111252000D01*
X149930679Y-111316449D01*
X149875603Y-111336309D01*
X149860000Y-111336667D01*
X149795551Y-111350655D01*
X149775691Y-111405731D01*
X149775333Y-111421334D01*
X149761345Y-111485782D01*
X149706269Y-111505643D01*
X149690667Y-111506000D01*
X149626218Y-111519988D01*
X149606357Y-111575064D01*
X149606000Y-111590667D01*
X149603939Y-111629089D01*
X149589511Y-111653670D01*
X149550351Y-111667501D01*
X149474092Y-111673672D01*
X149348367Y-111675277D01*
X149267333Y-111675333D01*
X149113643Y-111674818D01*
X149015321Y-111671211D01*
X148959998Y-111661421D01*
X148935311Y-111642357D01*
X148928891Y-111610925D01*
X148928667Y-111590667D01*
X148934157Y-111540418D01*
X148962175Y-111515350D01*
X149030042Y-111506802D01*
X149098000Y-111506000D01*
X149198497Y-111503255D01*
X149248633Y-111489246D01*
X149265729Y-111455312D01*
X149267333Y-111421334D01*
X149281321Y-111356885D01*
X149336397Y-111337024D01*
X149352000Y-111336667D01*
X149416449Y-111322679D01*
X149436309Y-111267603D01*
X149436667Y-111252000D01*
X149422679Y-111187551D01*
X149367603Y-111167691D01*
X149352000Y-111167333D01*
X149287551Y-111153346D01*
X149267691Y-111098270D01*
X149267333Y-111082667D01*
X149253345Y-111018218D01*
X149198269Y-110998358D01*
X149182666Y-110998000D01*
X149118218Y-110984012D01*
X149098357Y-110928936D01*
X149098000Y-110913333D01*
X149084012Y-110848885D01*
X149028936Y-110829024D01*
X149013333Y-110828667D01*
X148948884Y-110814679D01*
X148929024Y-110759603D01*
X148928667Y-110744000D01*
X148914679Y-110679551D01*
X148859603Y-110659691D01*
X148844000Y-110659334D01*
X148779551Y-110645346D01*
X148759691Y-110590270D01*
X148759333Y-110574667D01*
X148592907Y-110574667D01*
X148590802Y-110591376D01*
X148590000Y-110659334D01*
X148592745Y-110759831D01*
X148606754Y-110809967D01*
X148640688Y-110827063D01*
X148674666Y-110828667D01*
X148739115Y-110842655D01*
X148758976Y-110897731D01*
X148759333Y-110913333D01*
X148745345Y-110977782D01*
X148690269Y-110997643D01*
X148674666Y-110998000D01*
X148610218Y-111011988D01*
X148590357Y-111067064D01*
X148590000Y-111082667D01*
X148593165Y-111125732D01*
X148612173Y-111150976D01*
X148661291Y-111163154D01*
X148754786Y-111167022D01*
X148844000Y-111167333D01*
X148973195Y-111168389D01*
X149048926Y-111174725D01*
X149085461Y-111191097D01*
X149097066Y-111222262D01*
X149098000Y-111252000D01*
X149092510Y-111302249D01*
X149064492Y-111327317D01*
X148996624Y-111335865D01*
X148928667Y-111336667D01*
X148759333Y-111336667D01*
X148759333Y-111506000D01*
X148762078Y-111606498D01*
X148776087Y-111656634D01*
X148810021Y-111673729D01*
X148844000Y-111675333D01*
X148908449Y-111689321D01*
X148928309Y-111744397D01*
X148928667Y-111760000D01*
X148942654Y-111824449D01*
X148997730Y-111844309D01*
X149013333Y-111844667D01*
X149077782Y-111858655D01*
X149097642Y-111913731D01*
X149098000Y-111929334D01*
X149111988Y-111993782D01*
X149167064Y-112013643D01*
X149182666Y-112014000D01*
X149247115Y-112000012D01*
X149266976Y-111944936D01*
X149267333Y-111929334D01*
X149270499Y-111886268D01*
X149289507Y-111861025D01*
X149338625Y-111848847D01*
X149432120Y-111844978D01*
X149521333Y-111844667D01*
X149775333Y-111844667D01*
X149775333Y-111675333D01*
X149778078Y-111574836D01*
X149792087Y-111524700D01*
X149826021Y-111507604D01*
X149860000Y-111506000D01*
X149924449Y-111519988D01*
X149944309Y-111575064D01*
X149944666Y-111590667D01*
X149958654Y-111655116D01*
X150013730Y-111674976D01*
X150029333Y-111675333D01*
X150093782Y-111661346D01*
X150113642Y-111606270D01*
X150114000Y-111590667D01*
X150127988Y-111526218D01*
X150183064Y-111506358D01*
X150198666Y-111506000D01*
X150263115Y-111492012D01*
X150282976Y-111436936D01*
X150283333Y-111421334D01*
X150297321Y-111356885D01*
X150352397Y-111337024D01*
X150368000Y-111336667D01*
X150432449Y-111322679D01*
X150452309Y-111267603D01*
X150452667Y-111252000D01*
X150438679Y-111187551D01*
X150383603Y-111167691D01*
X150368000Y-111167333D01*
X150303551Y-111181321D01*
X150283691Y-111236397D01*
X150283333Y-111252000D01*
X150269345Y-111316449D01*
X150214269Y-111336309D01*
X150198666Y-111336667D01*
X150134218Y-111322679D01*
X150114357Y-111267603D01*
X150114000Y-111252000D01*
X150100012Y-111187551D01*
X150044936Y-111167691D01*
X150029333Y-111167333D01*
X149964884Y-111153346D01*
X149945024Y-111098270D01*
X149944666Y-111082667D01*
X149958654Y-111018218D01*
X150013730Y-110998358D01*
X150029333Y-110998000D01*
X150093782Y-110984012D01*
X150113642Y-110928936D01*
X150114000Y-110913333D01*
X150119490Y-110863085D01*
X150147508Y-110838017D01*
X150215376Y-110829469D01*
X150283333Y-110828667D01*
X150383831Y-110831412D01*
X150433967Y-110845421D01*
X150451062Y-110879355D01*
X150452667Y-110913333D01*
X150466654Y-110977782D01*
X150521730Y-110997643D01*
X150537333Y-110998000D01*
X150601782Y-110984012D01*
X150621642Y-110928936D01*
X150622000Y-110913333D01*
X150608012Y-110848885D01*
X150552936Y-110829024D01*
X150537333Y-110828667D01*
X150472884Y-110814679D01*
X150453024Y-110759603D01*
X150452667Y-110744000D01*
X150438679Y-110679551D01*
X150383603Y-110659691D01*
X150368000Y-110659334D01*
X150324935Y-110656168D01*
X150299691Y-110637160D01*
X150287513Y-110588042D01*
X150283644Y-110494547D01*
X150283333Y-110405334D01*
X150284388Y-110276138D01*
X150290724Y-110200407D01*
X150307097Y-110163873D01*
X150338262Y-110152267D01*
X150368000Y-110151333D01*
X150432449Y-110165321D01*
X150452309Y-110220397D01*
X150452667Y-110236000D01*
X150466654Y-110300449D01*
X150521730Y-110320309D01*
X150537333Y-110320667D01*
X150601782Y-110306679D01*
X150621642Y-110251603D01*
X150622000Y-110236000D01*
X150635988Y-110171551D01*
X150691064Y-110151691D01*
X150706667Y-110151333D01*
X150771115Y-110137346D01*
X150790976Y-110082270D01*
X150791333Y-110066667D01*
X150777345Y-110002218D01*
X150722269Y-109982358D01*
X150706667Y-109982000D01*
X150642218Y-109968012D01*
X150622357Y-109912936D01*
X150622000Y-109897333D01*
X150635988Y-109832885D01*
X150691064Y-109813024D01*
X150706667Y-109812667D01*
X150771115Y-109798679D01*
X150790976Y-109743603D01*
X150791333Y-109728000D01*
X150805321Y-109663551D01*
X150860397Y-109643691D01*
X150876000Y-109643333D01*
X150926249Y-109637843D01*
X150951317Y-109609825D01*
X150959864Y-109541958D01*
X150960667Y-109474000D01*
X150957921Y-109373503D01*
X150943912Y-109323367D01*
X150909979Y-109306271D01*
X150876000Y-109304667D01*
X150811551Y-109290679D01*
X150791691Y-109235603D01*
X150791333Y-109220000D01*
X150777345Y-109155551D01*
X150722269Y-109135691D01*
X150706667Y-109135333D01*
X150642218Y-109121346D01*
X150622357Y-109066270D01*
X150622000Y-109050667D01*
X150616510Y-109000418D01*
X150588492Y-108975350D01*
X150520624Y-108966802D01*
X150452667Y-108966000D01*
X150283333Y-108966000D01*
X150283333Y-109135333D01*
X150286078Y-109235831D01*
X150300087Y-109285967D01*
X150334021Y-109303063D01*
X150368000Y-109304667D01*
X150432449Y-109318655D01*
X150452309Y-109373731D01*
X150452667Y-109389333D01*
X150447176Y-109439582D01*
X150419158Y-109464650D01*
X150351291Y-109473198D01*
X150283333Y-109474000D01*
X150114000Y-109474000D01*
X150114000Y-109812667D01*
G36*
X150114000Y-109304667D02*
X150111255Y-109204169D01*
X150097246Y-109154033D01*
X150063312Y-109136938D01*
X150029333Y-109135333D01*
X149964884Y-109121346D01*
X149945024Y-109066270D01*
X149944666Y-109050667D01*
X149939176Y-109000418D01*
X149911158Y-108975350D01*
X149843291Y-108966802D01*
X149775333Y-108966000D01*
X149674836Y-108968745D01*
X149624700Y-108982754D01*
X149607604Y-109016688D01*
X149606000Y-109050667D01*
X149619988Y-109115116D01*
X149675064Y-109134976D01*
X149690667Y-109135333D01*
X149740915Y-109140824D01*
X149765983Y-109168842D01*
X149774531Y-109236709D01*
X149775333Y-109304667D01*
X149775333Y-109474000D01*
X150114000Y-109474000D01*
X150114000Y-109304667D01*
X150114000Y-109304667D01*
G37*
X150114000Y-109304667D02*
X150111255Y-109204169D01*
X150097246Y-109154033D01*
X150063312Y-109136938D01*
X150029333Y-109135333D01*
X149964884Y-109121346D01*
X149945024Y-109066270D01*
X149944666Y-109050667D01*
X149939176Y-109000418D01*
X149911158Y-108975350D01*
X149843291Y-108966802D01*
X149775333Y-108966000D01*
X149674836Y-108968745D01*
X149624700Y-108982754D01*
X149607604Y-109016688D01*
X149606000Y-109050667D01*
X149619988Y-109115116D01*
X149675064Y-109134976D01*
X149690667Y-109135333D01*
X149740915Y-109140824D01*
X149765983Y-109168842D01*
X149774531Y-109236709D01*
X149775333Y-109304667D01*
X149775333Y-109474000D01*
X150114000Y-109474000D01*
X150114000Y-109304667D01*
G36*
X151279115Y-109290679D02*
X151298976Y-109235603D01*
X151299333Y-109220000D01*
X151313321Y-109155551D01*
X151368397Y-109135691D01*
X151384000Y-109135333D01*
X151448449Y-109121346D01*
X151468309Y-109066270D01*
X151468667Y-109050667D01*
X151454679Y-108986218D01*
X151399603Y-108966358D01*
X151384000Y-108966000D01*
X151319551Y-108979988D01*
X151299691Y-109035064D01*
X151299333Y-109050667D01*
X151285345Y-109115116D01*
X151230269Y-109134976D01*
X151214667Y-109135333D01*
X151150218Y-109121346D01*
X151130357Y-109066270D01*
X151130000Y-109050667D01*
X151116012Y-108986218D01*
X151060936Y-108966358D01*
X151045333Y-108966000D01*
X150980884Y-108979988D01*
X150961024Y-109035064D01*
X150960667Y-109050667D01*
X150974654Y-109115116D01*
X151029730Y-109134976D01*
X151045333Y-109135333D01*
X151109782Y-109149321D01*
X151129642Y-109204397D01*
X151130000Y-109220000D01*
X151143988Y-109284449D01*
X151199064Y-109304309D01*
X151214667Y-109304667D01*
X151279115Y-109290679D01*
X151279115Y-109290679D01*
G37*
X151279115Y-109290679D02*
X151298976Y-109235603D01*
X151299333Y-109220000D01*
X151313321Y-109155551D01*
X151368397Y-109135691D01*
X151384000Y-109135333D01*
X151448449Y-109121346D01*
X151468309Y-109066270D01*
X151468667Y-109050667D01*
X151454679Y-108986218D01*
X151399603Y-108966358D01*
X151384000Y-108966000D01*
X151319551Y-108979988D01*
X151299691Y-109035064D01*
X151299333Y-109050667D01*
X151285345Y-109115116D01*
X151230269Y-109134976D01*
X151214667Y-109135333D01*
X151150218Y-109121346D01*
X151130357Y-109066270D01*
X151130000Y-109050667D01*
X151116012Y-108986218D01*
X151060936Y-108966358D01*
X151045333Y-108966000D01*
X150980884Y-108979988D01*
X150961024Y-109035064D01*
X150960667Y-109050667D01*
X150974654Y-109115116D01*
X151029730Y-109134976D01*
X151045333Y-109135333D01*
X151109782Y-109149321D01*
X151129642Y-109204397D01*
X151130000Y-109220000D01*
X151143988Y-109284449D01*
X151199064Y-109304309D01*
X151214667Y-109304667D01*
X151279115Y-109290679D01*
G36*
X151279115Y-110984012D02*
X151298976Y-110928936D01*
X151299333Y-110913333D01*
X151285345Y-110848885D01*
X151230269Y-110829024D01*
X151214667Y-110828667D01*
X151150218Y-110814679D01*
X151130357Y-110759603D01*
X151130000Y-110744000D01*
X151124510Y-110693751D01*
X151096492Y-110668683D01*
X151028624Y-110660136D01*
X150960667Y-110659334D01*
X150860169Y-110662079D01*
X150810033Y-110676088D01*
X150792937Y-110710021D01*
X150791333Y-110744000D01*
X150796823Y-110794249D01*
X150824841Y-110819317D01*
X150892709Y-110827865D01*
X150960667Y-110828667D01*
X151061164Y-110831412D01*
X151111300Y-110845421D01*
X151128396Y-110879355D01*
X151130000Y-110913333D01*
X151143988Y-110977782D01*
X151199064Y-110997643D01*
X151214667Y-110998000D01*
X151279115Y-110984012D01*
X151279115Y-110984012D01*
G37*
X151279115Y-110984012D02*
X151298976Y-110928936D01*
X151299333Y-110913333D01*
X151285345Y-110848885D01*
X151230269Y-110829024D01*
X151214667Y-110828667D01*
X151150218Y-110814679D01*
X151130357Y-110759603D01*
X151130000Y-110744000D01*
X151124510Y-110693751D01*
X151096492Y-110668683D01*
X151028624Y-110660136D01*
X150960667Y-110659334D01*
X150860169Y-110662079D01*
X150810033Y-110676088D01*
X150792937Y-110710021D01*
X150791333Y-110744000D01*
X150796823Y-110794249D01*
X150824841Y-110819317D01*
X150892709Y-110827865D01*
X150960667Y-110828667D01*
X151061164Y-110831412D01*
X151111300Y-110845421D01*
X151128396Y-110879355D01*
X151130000Y-110913333D01*
X151143988Y-110977782D01*
X151199064Y-110997643D01*
X151214667Y-110998000D01*
X151279115Y-110984012D01*
G36*
X150771115Y-111322679D02*
X150790976Y-111267603D01*
X150791333Y-111252000D01*
X150805321Y-111187551D01*
X150860397Y-111167691D01*
X150876000Y-111167333D01*
X150940449Y-111153346D01*
X150960309Y-111098270D01*
X150960667Y-111082667D01*
X150946679Y-111018218D01*
X150891603Y-110998358D01*
X150876000Y-110998000D01*
X150811551Y-111011988D01*
X150791691Y-111067064D01*
X150791333Y-111082667D01*
X150777345Y-111147116D01*
X150722269Y-111166976D01*
X150706667Y-111167333D01*
X150642218Y-111181321D01*
X150622357Y-111236397D01*
X150622000Y-111252000D01*
X150635988Y-111316449D01*
X150691064Y-111336309D01*
X150706667Y-111336667D01*
X150771115Y-111322679D01*
X150771115Y-111322679D01*
G37*
X150771115Y-111322679D02*
X150790976Y-111267603D01*
X150791333Y-111252000D01*
X150805321Y-111187551D01*
X150860397Y-111167691D01*
X150876000Y-111167333D01*
X150940449Y-111153346D01*
X150960309Y-111098270D01*
X150960667Y-111082667D01*
X150946679Y-111018218D01*
X150891603Y-110998358D01*
X150876000Y-110998000D01*
X150811551Y-111011988D01*
X150791691Y-111067064D01*
X150791333Y-111082667D01*
X150777345Y-111147116D01*
X150722269Y-111166976D01*
X150706667Y-111167333D01*
X150642218Y-111181321D01*
X150622357Y-111236397D01*
X150622000Y-111252000D01*
X150635988Y-111316449D01*
X150691064Y-111336309D01*
X150706667Y-111336667D01*
X150771115Y-111322679D01*
G36*
X149585782Y-111153346D02*
X149605642Y-111098270D01*
X149606000Y-111082667D01*
X149619988Y-111018218D01*
X149675064Y-110998358D01*
X149690667Y-110998000D01*
X149733732Y-110994835D01*
X149758975Y-110975827D01*
X149771153Y-110926709D01*
X149775022Y-110833214D01*
X149775333Y-110744000D01*
X149774278Y-110614805D01*
X149767942Y-110539074D01*
X149751569Y-110502539D01*
X149720404Y-110490934D01*
X149690667Y-110490000D01*
X149626218Y-110503988D01*
X149606357Y-110559064D01*
X149606000Y-110574667D01*
X149592012Y-110639116D01*
X149536936Y-110658976D01*
X149521333Y-110659334D01*
X149478268Y-110662499D01*
X149453024Y-110681507D01*
X149440846Y-110730625D01*
X149436978Y-110824120D01*
X149436667Y-110913333D01*
X149437722Y-111042529D01*
X149444058Y-111118260D01*
X149460430Y-111154794D01*
X149491595Y-111166400D01*
X149521333Y-111167333D01*
X149585782Y-111153346D01*
X149585782Y-111153346D01*
G37*
X149585782Y-111153346D02*
X149605642Y-111098270D01*
X149606000Y-111082667D01*
X149619988Y-111018218D01*
X149675064Y-110998358D01*
X149690667Y-110998000D01*
X149733732Y-110994835D01*
X149758975Y-110975827D01*
X149771153Y-110926709D01*
X149775022Y-110833214D01*
X149775333Y-110744000D01*
X149774278Y-110614805D01*
X149767942Y-110539074D01*
X149751569Y-110502539D01*
X149720404Y-110490934D01*
X149690667Y-110490000D01*
X149626218Y-110503988D01*
X149606357Y-110559064D01*
X149606000Y-110574667D01*
X149592012Y-110639116D01*
X149536936Y-110658976D01*
X149521333Y-110659334D01*
X149478268Y-110662499D01*
X149453024Y-110681507D01*
X149440846Y-110730625D01*
X149436978Y-110824120D01*
X149436667Y-110913333D01*
X149437722Y-111042529D01*
X149444058Y-111118260D01*
X149460430Y-111154794D01*
X149491595Y-111166400D01*
X149521333Y-111167333D01*
X149585782Y-111153346D01*
G36*
X149247115Y-110814679D02*
X149266976Y-110759603D01*
X149267333Y-110744000D01*
X149253345Y-110679551D01*
X149198269Y-110659691D01*
X149182666Y-110659334D01*
X149118218Y-110673321D01*
X149098357Y-110728397D01*
X149098000Y-110744000D01*
X149111988Y-110808449D01*
X149167064Y-110828309D01*
X149182666Y-110828667D01*
X149247115Y-110814679D01*
X149247115Y-110814679D01*
G37*
X149247115Y-110814679D02*
X149266976Y-110759603D01*
X149267333Y-110744000D01*
X149253345Y-110679551D01*
X149198269Y-110659691D01*
X149182666Y-110659334D01*
X149118218Y-110673321D01*
X149098357Y-110728397D01*
X149098000Y-110744000D01*
X149111988Y-110808449D01*
X149167064Y-110828309D01*
X149182666Y-110828667D01*
X149247115Y-110814679D01*
M02*
